<?xml version="1.0" encoding="utf-8"?>
<!-- Generator: Adobe Illustrator 26.2.1, SVG Export Plug-In . SVG Version: 6.00 Build 0)  -->
<svg version="1.1"
	 id="Layer_1" xmlns:cc="http://web.resource.org/cc/" xmlns:dc="http://purl.org/dc/elements/1.1/" xmlns:rdf="http://www.w3.org/1999/02/22-rdf-syntax-ns#" xmlns:svg="http://www.w3.org/2000/svg"
	 xmlns="http://www.w3.org/2000/svg" xmlns:xlink="http://www.w3.org/1999/xlink" x="0px" y="0px" viewBox="0 0 408.4 448.6"
	 style="enable-background:new 0 0 408.4 448.6;" xml:space="preserve">
<style type="text/css">
	.st0{fill-rule:evenodd;clip-rule:evenodd;fill:#FFFFFF;}
	.st1{fill-rule:evenodd;clip-rule:evenodd;}
</style>
<g>
	<path class="st0" d="M275.5,18.3c7.7,0.4,19-6.1,23.9,2.4c3.6-1.2,8.8,1.4,11.9-1.6c3,2,5.4,4.7,8.8,6.4c-1.3,5.3-7.7,1.9-12.7,2.4
		c-2.2-2.3,3.1-1.5,2.4-4.8c-2.8,0.2-3,2.8-5.6,3.2c-2.3-2.8-7.6-2.5-10.4-4.8c-2.5-0.4-1.8,2.4-4.8,1.6c-10.5-2-19,1.1-29.5,0
		c-4.4,4.9-10.9,7.7-13.5,14.3c3.5,0.4,6.3-1,8.8,3.2c5-0.4,7.4-5.9,11.9-2.4c-0.8,4.8-5.9,5.9-8.8,8.8c-1.2,1.2-1.1,3.3-2.4,4.8
		c-1.4,1.7-4.4,2.5-5.6,4c-1.3,1.6-2.6,4.3-4,6.4c-1.3,1.8-4.1,3.6-3.2,6.4c6.1,1,3.3-6.8,10.4-4.8c1.3-3.1-2.1-1.6-2.4-3.2
		c7.1-11.2,16.8-19.9,28.7-26.3c3.7,1.6,6.7-0.8,9.6,0c5.5,1.6,7.5,8.7,10.4,13.5c-5.1,4.8-11.7,8.7-15.1,15.9
		c-0.7,1.6-2.7,2.4-0.8,4c2.7,0.3,5.4-2.3,7.2-4c0.9-0.9,0.8-2.2,1.6-3.2c6.6-8.8,16.9-14.6,26.3-20.7c2-0.1,3.8-0.1,4.8,0.8
		c3.6-3.7,12.2-4,15.9,0v5.6c6.5,8.6,5.9,24.3,18.3,27.1c0.4,3-0.2,5.1-1.6,6.4c-0.5,3,2,14.2-1.6,16.7c-2.9,1-0.8-2.5-1.6-4
		c-0.6-1.1-2.1-1-2.4-2.4c-0.6-3,0.5-6.4,0-10.4c-1.1-2.1-4.7-1.7-6.4-3.2c-0.6-2.9,2.8-2,4-3.2c-0.4-3.6-3.5-4.5-4-8
		c-6.3-0.2-10.6,1.6-14.3,4c-0.6,2.7,2.9,1.3,3.2,3.2c4.5,11.9,11.8,18,11.1,32.6c0.7,2.6-2.1,1.7-2.4,3.2
		c0.2,7.3,2.5,12.3,5.6,16.7c0.1,9.6,1.6,27.7,0.8,38.2c0,1.6,2.2,1,1.6,3.2c4.3-0.2,2.9-6.1,3.2-10.4c2.7-5,4.2-11.2,8.8-14.3
		c3.9,0.9,5.1,4.4,5.6,8.8c-1.7,1.7-2.3-0.4-4.8,0c-3.2,6.6-6.6,13.1-8,21.5c-2.7-0.1-4.4-1.8-5.6,0.8c-0.3,6.4-3.2,13.7-4.8,19.1
		c-1.2,4.2-2.8,7.4-4,11.1c-0.4,1.2,0.4,2.8,0,4c-0.5,1.7-1.2,4-1.6,7.2c-0.5,4.3-4.8,13-4,19.1c2.6,0.2,1.9-2.8,3.2-4
		c2.7,3.7-0.2,9.6-0.8,14.3c-0.9,7.8-3.3,12.3-6.4,19.1c-2,4.4-3.7,9.9-7.2,11.9c-2.2-5.4,0.2-10.2-0.8-14.3
		c-1.6-6.8-10.2-11.6-11.9-19.1c-0.4-3.1,4.6-0.7,4.8-3.2c-0.1-0.9,0.2-1.4,0.8-1.6c-0.9-2.3-5.3-5.3-8-3.2c-4.4-3.5-6.9-9-6.4-17.5
		c5.5,1.9,6.9,8,11.9,10.4c2,0.1,2.5-1.2,3.2-2.4c-1.7-7.4-7.6-10.4-15.1-11.9c4.8-24.9-20.5-19.8-31.9-28.7
		c-1.5-5.9-1-12.5-1.6-17.5c-6.3-3.6-15.1-0.2-21.5-1.6c-1.1-3.5-0.6-6.6,0.8-9.6c2.6-1.8,5.5,2.7,8.8,0c-1-7.8-8.9-8.7-14.3-11.9
		c-7.7,1.9-14.1-1.5-20.7-0.8c-3.5,0.4-6.2,3.8-10.4,2.4c-3.2,2.1-6.5,4.1-8,8c1.8,2.9,6.2-1,10.4-1.6c6.3-0.9,13.4,0.3,18.3,1.6
		c-0.9,3.1-7,1-10.4,1.6c-3.2,1-2.3,6.2-2.4,10.4c-12.9,1.2-28.2,1.3-42.2,0c0.3-6.9-3.4-9.9-4.8-15.1c-0.3-2.9-4.6-1.7-4.8-4.8
		c10.4-5.5,10.2,10.9,15.9,15.1c2,0.1,2.5-1.2,4-1.6c-0.2-9.6,1.6-16.3-1.6-23.1c2.3-4.3,8.3-5,8.8-11.1c-0.2-3.5-5.9-1.5-8-3.2
		c1.2-2,6.9,0.5,7.2-2.4c-0.3-3.4-4.4-3-6.4-4.8c3.9-7.5,0.8-20,6.4-27.1c-2-2.9-0.4-5.1-2.4-7.2c-3.8,0.2-8.8-0.8-10.4,1.6
		c-0.2,2.1,3.1,0.6,2.4,3.2c-2.5-0.4-3.3,1-4,2.4c-0.6,2.7,2.9,1.3,3.2,3.2c-2.9,3.6-1.6,5.2-0.8,10.4c-3.8,1.1-3.1-2.2-4.8-3.2
		c-1.8-15.1,4-21.7,4-35c3.1-2,3.8-6.3,5.6-9.6c5.8-0.6,7.7-5.1,13.5-5.6c0.7,1.4,2.9,1.3,3.2,3.2c0.3,1.9-1.5,1.7-0.8,4
		c-6,0.5-9.9,5.1-8,11.1c-2.7-0.3-4.5,0.3-6.4,0.8c-5.7,8.8,5.8,10.8,11.9,12.7c4.5-1.6,1.7-5.7,4-8.8c5.2-2.5,13.4-2,19.9-3.2
		c1.9-3.7-3.2-5.7-4.8-8c-1-1.4-0.5-3.3-2.4-4c-2-0.8-4.7,0.5-7.2,0c-4-3.1-4.2-10.1-9.6-11.9c-3.8,0-4.9,2.6-8.8,2.4
		c1.6-3.2,3.3-6.8,5.6-9.6c3.4-4.2,8.5-6.9,11.9-11.1c10.1,0.5,15.5-0.6,22.3-5.6c4-2.9,6.9-8.7,11.9-4c7.4,0.4,14.2-5.2,19.9-1.6
		c4-2.7,8.2-0.9,11.9,0.8C274.6,15.5,274.6,17.4,275.5,18.3L275.5,18.3z M265.1,15.1c-4.8,2.1-8.5,5.3-14.3,6.4
		c-4.6,5.5-11.4,10.5-15.9,15.1c-1.7,1.7-5.3,3-4,5.6c13.5-4.6,17.3-18.8,31.1-23.1c2.8-1.3,5,1.4,6.4-1.6
		C266.8,17.2,267.7,14.4,265.1,15.1L265.1,15.1z M207,31.1c-1.5,0.8,3,2.3,2.4,4.8c-0.3,1.5-2.3,1.4-1.6,4c1.5,2,3,3.9,3.2,7.2
		c10.7,4.7,13.9,16.9,25.5,20.7c4.5-7.7-5-13.7-8.8-18.3c1.6-1.9,1.8-5.1,1.6-8.8C221,37.6,215.9,19.3,207,31.1L207,31.1z
		 M270.7,45.4c-1.9,1.3-4.2,5.3-6.4,7.2c-4.6,3.9-9.3,9.3-10.4,15.9c2.7-0.6,5.6-0.1,9.6,1.6c2.8-1.3,6.4-2.2,8.8,0
		c5.6-4.2,10.3-9.3,13.5-15.9c-4-1.7-6.5,4.5-10.4,5.6c-0.2-2.3,1.8-2.4,1.6-4.8c-3.6-0.4-3.1,3.3-6.4,3.2c1-4.5,8-6.6,7.2-10.4
		c-8.7,2.9-11,12.4-18.3,16.7c2.8-9.9,11.5-14,17.5-20.7C275.2,42.5,272.4,44.2,270.7,45.4L270.7,45.4z M322.5,43.8
		c-12,7.4-23.1,15.6-30.3,27.9c5.2,1.8,7.3-4.5,9.6-7.2c6.7-8,13.2-14.6,22.3-19.1C324,44.4,323.8,43.5,322.5,43.8L322.5,43.8z
		 M330.4,45.4c-6.9,2-13.5,6.2-17.5,10.4c-3.6,3.7-9.5,7.6-8.8,11.9c3.5,2.7,4.4-2.7,8-2.4c9.9,2,18.7-1.3,26.3-4
		c-0.1-5.8-4.3-7.4-7.2-10.4c1.6-0.8,1.7-3.1,1.6-5.6L330.4,45.4L330.4,45.4z M257.2,54.1C259.9,56.6,259.6,51.2,257.2,54.1z
		 M254,58.9c2.5,1,4.5-2.3,2.4-3.2C256.1,57.3,253.3,56.4,254,58.9L254,58.9z M333.6,145.7c-4.4-1-4.5-6.1-9.6-6.4
		c-2.4,0.5-4.1,1.7-6.4,2.4c-13.3-4.4-28.2,2.8-35,11.9c4.4,5.8,11.1,0.6,15.1,0c10.9-1.6,19.2-3.6,30.3-4c3.8,0.7,4.3,4.7,9.6,4
		c-0.5-6.4,0.9-13.3,1.6-22.3c-0.2-0.6-0.7-0.9-1.6-0.8C335.6,135,333.9,141.9,333.6,145.7L333.6,145.7z M258.8,137.8
		c-3.4,3.9,0.4,11.6,4,13.5C266,146.9,265.7,138.2,258.8,137.8L258.8,137.8z M321.7,158.5c-8.2-1.3-19.1-1-27.9,4
		c-0.6-2.5,2.2-1.5,1.6-4c-4.5,0-8.2,0.8-9.6,4c4.3,0.7,3.8,1.7,3.2,6.4c4.1,2.2,11,3.1,17.5,3.2c5.7,0.1,13.2,0,15.1-4
		c-1.1-0.8-2.4-1.3-3.2-2.4c1.2-1.5,1.8-3.5,4.8-3.2c3,1,2.6,5.4,6.4,5.6c2.5-0.1,4.7-0.6,4.8-3.2c-0.8-3.2-3.3-2.3-1.6-6.4
		c-2.4-3.7-9.6-2.6-14.3-4C317.9,157.5,322.7,155,321.7,158.5L321.7,158.5z M276.3,173.6c3.4-1,4.5,2.6,6.4,0.8
		c1.7-2.9,0.4-8.6,0.8-12.7c-1.7-0.7-2.4-2.4-4.8-2.4C276.2,163,275.2,168.5,276.3,173.6L276.3,173.6z M328,169.6h-2.4
		c-3.3,3.3-9.1,4.2-13.5,6.4c-0.9-2.2-5.6-1.5-5.6,1.6c7.2,4,20.7,2.1,23.1-5.6C328.5,171.8,328.7,170.2,328,169.6L328,169.6z"/>
	<path class="st1" d="M268.3,17.5c-1.4,3-3.6,0.3-6.4,1.6c-13.8,4.3-17.6,18.5-31.1,23.1c-1.3-2.6,2.3-3.9,4-5.6
		c4.5-4.6,11.3-9.6,15.9-15.1c5.9-1,9.5-4.3,14.3-6.4C267.7,14.4,266.8,17.2,268.3,17.5L268.3,17.5z"/>
	<path class="st1" d="M229.3,40.6c0.2,3.7,0,6.9-1.6,8.8c3.7,4.6,13.3,10.6,8.8,18.3c-11.6-3.8-14.8-16-25.5-20.7
		c-0.2-3.3-1.7-5.2-3.2-7.2c-0.7-2.5,1.3-2.5,1.6-4c0.6-2.5-3.9-3.9-2.4-4.8C215.9,19.3,221.1,37.6,229.3,40.6L229.3,40.6z"/>
	<path class="st1" d="M277.1,43.8c-6.1,6.7-14.7,10.8-17.5,20.7c7.3-4.4,9.6-13.8,18.3-16.7c0.8,3.7-6.2,5.9-7.2,10.4
		c3.3,0.1,2.8-3.6,6.4-3.2c0.2,2.3-1.8,2.4-1.6,4.8c3.9-1.1,6.3-7.2,10.4-5.6c-3.2,6.6-7.9,11.7-13.5,15.9c-2.3-2.2-6-1.3-8.8,0
		c-3.9-1.7-6.8-2.2-9.6-1.6c1-6.6,5.8-12.1,10.4-15.9c2.2-1.8,4.4-5.9,6.4-7.2C272.5,44.2,275.2,42.5,277.1,43.8L277.1,43.8z"/>
	<path class="st1" d="M324.1,45.4c-9.1,4.5-15.6,11.2-22.3,19.1c-2.3,2.7-4.3,9-9.6,7.2c7.1-12.2,18.2-20.5,30.3-27.9
		C323.8,43.5,324,44.4,324.1,45.4L324.1,45.4z"/>
	<path class="st1" d="M332.8,45.4c0.1,2.5,0,4.8-1.6,5.6c2.9,3,7.1,4.6,7.2,10.4c-7.5,2.7-16.4,6-26.3,4c-3.6-0.3-4.5,5.1-8,2.4
		c-0.7-4.3,5.2-8.2,8.8-11.9c4-4.1,10.6-8.4,17.5-10.4L332.8,45.4L332.8,45.4z"/>
	<path class="st1" d="M257.2,54.1C259.6,51.2,259.9,56.6,257.2,54.1z"/>
	<path class="st1" d="M256.4,55.7c2.1,0.9,0.1,4.2-2.4,3.2C253.3,56.4,256.1,57.3,256.4,55.7L256.4,55.7z"/>
	<path class="st0" d="M179.2,102.7c2.2-0.1,2.6,2.3,1.6,3.2C179.4,105.7,178.9,104.5,179.2,102.7L179.2,102.7z"/>
	<path class="st1" d="M337.6,130.6c0.9-0.1,1.4,0.2,1.6,0.8c-0.7,9-2.1,15.9-1.6,22.3c-5.2,0.7-5.8-3.2-9.6-4
		c-11,0.4-19.3,2.4-30.3,4c-4,0.6-10.7,5.8-15.1,0c6.8-9.2,21.7-16.3,35-11.9c2.2-0.7,3.9-1.9,6.4-2.4c5.1,0.3,5.2,5.4,9.6,6.4
		C333.9,141.9,335.6,135,337.6,130.6L337.6,130.6z"/>
	<path class="st1" d="M262.8,151.3c-3.6-1.9-7.4-9.6-4-13.5C265.7,138.2,266,146.9,262.8,151.3L262.8,151.3z"/>
	<path class="st0" d="M117.1,152.9c-2.8-0.2-7.7,1.6-10.4,0.8C108.7,152.7,115.8,149.3,117.1,152.9L117.1,152.9z"/>
	<path class="st1" d="M318.5,154.5c4.7,1.4,11.9,0.3,14.3,4c-1.7,4.1,0.8,3.2,1.6,6.4c0,2.6-2.3,3-4.8,3.2c-3.8-0.2-3.4-4.5-6.4-5.6
		c-3-0.3-3.6,1.7-4.8,3.2c0.8,1.1,2.1,1.6,3.2,2.4c-1.9,4-9.4,4.1-15.1,4c-6.5-0.1-13.4-0.9-17.5-3.2c0.6-4.7,1.1-5.7-3.2-6.4
		c1.4-3.1,5-4,9.6-4c0.6,2.5-2.2,1.5-1.6,4c8.8-5,19.7-5.3,27.9-4C322.7,155,317.9,157.5,318.5,154.5L318.5,154.5z M297,167.2
		c1.5,1.4,5.3,0.6,8,0.8C304.8,163.6,297.6,162.7,297,167.2L297,167.2z"/>
	<path class="st0" d="M242.9,156.1c2.5,2.3,0.8,8.8,2.4,11.9c4.6,1.6,14.4-0.3,20.7,1.6c-4.1,4.6-13,1.1-19.9,1.6
		c0.1,0.9-0.2,1.4-0.8,1.6c-0.5,4.7,2.9,4.3,4.8,4.8c0.9,2.4-1.9,1.2-3.2,1.6c-4.6,1.5-15.1,2.1-23.9,1.6c-0.2-3.8,1-9-2.4-9.6
		c-4.8,0.1,0.5,3.2-1.6,4.8c-2.5-0.7-2.6-3.8-4.8-4.8c-26.1,1-62.8,0.1-88.4,0c-1.6,0.2-1.6,2.2-3.2,2.4c-1.2,4.2,2.2,6.8,0.8,8.8
		c-7.9,3.1-23.1,1.3-30.3,0.8c1-2.1,6.2-2.9,9.6-3.2c4.9-0.5,9.9,1.5,15.1,0c1.9-2,1.7-6.3,1.6-10.4c31.6-1.8,66.6-0.3,99.5-0.8
		c1.9-0.5,2.1-2.6,4-3.2C215.8,154.3,233.2,155.6,242.9,156.1L242.9,156.1z M226.1,160.8c-1.4,6.1,1.3,8.6,0,15.1
		c3.4,1.3,11.7,1.3,15.1,0v-15.1C236.1,158.3,231.2,159.3,226.1,160.8L226.1,160.8z"/>
	<path class="st0" d="M367.1,156.9c0.6,2.8-0.7,3.5-2.4,4c0.7,1.7,1.2,3.5,2.4,4.8c1.1,12.5-2,20.8-7.2,27.1c1.5,2-1.2,3.3,0.8,4.8
		c-4.3,7.1-3.8,19-13.5,20.7c-1.9-6.5,2.5-12.6,1.6-20.7c1.5-1.5,2-0.1,4,0c2.2-1,2.1-4.3,2.4-7.2c-2.2-2.2-2,2.1-4.8,1.6
		c-0.5-4,0.7-6.2,0.8-9.6c2.9-0.5,5-1.9,5.6-4.8c2-0.4,5.5,0.1,6.4-3.2c0.5-4-2.2-4.7-3.2-7.2C360.2,161.7,361.4,157,367.1,156.9
		L367.1,156.9z"/>
	<path class="st1" d="M241.3,160.8V176c-3.4,1.3-11.7,1.3-15.1,0c1.3-6.5-1.4-9,0-15.1C231.2,159.3,236.1,158.3,241.3,160.8
		L241.3,160.8z M230.1,172.8c2.6,1.3,5.1,0.5,8,0c-0.4-4.3-0.5-4.2-0.8-8C232.2,159.9,226.6,166.8,230.1,172.8L230.1,172.8z"/>
	<path class="st1" d="M278.7,159.2c2.4,0,3.1,1.7,4.8,2.4c-0.4,4.1,0.9,9.9-0.8,12.7c-1.9,1.8-2.9-1.7-6.4-0.8
		C275.2,168.5,276.3,163,278.7,159.2L278.7,159.2z"/>
	<path class="st0" d="M237.3,164.8c0.3,3.8,0.4,3.6,0.8,8c-2.9,0.5-5.3,1.3-8,0C226.6,166.8,232.2,159.9,237.3,164.8L237.3,164.8z"
		/>
	<path class="st0" d="M305,168c-2.7-0.2-6.5,0.6-8-0.8C297.6,162.7,304.8,163.6,305,168L305,168z"/>
	<path class="st1" d="M329.6,172c-2.4,7.7-15.9,9.5-23.1,5.6c0-3.1,4.7-3.8,5.6-1.6c4.5-2.2,10.2-3.1,13.5-6.4h2.4
		C328.7,170.2,328.5,171.8,329.6,172L329.6,172z"/>
	<path class="st0" d="M113.1,172.8c-2.2,0.8-7.4,1.5-9.6,0C104.2,170.5,113,168.4,113.1,172.8L113.1,172.8z"/>
	<path class="st0" d="M99.5,172c-0.2,2.5-4,1.3-6.4,1.6C92.7,170.4,97.5,172.7,99.5,172L99.5,172z"/>
	<path class="st0" d="M117.1,174.4c0.8,3.2-3.7,4.2-3.2,0.8C114.6,174.6,115.7,174.3,117.1,174.4L117.1,174.4z"/>
	<path class="st0" d="M90.8,176.8c-0.4,3.2-3,5.1-5.6,4C85.1,177,88.2,175.6,90.8,176.8L90.8,176.8z"/>
	<path class="st0" d="M127.4,178.4c3.5-0.1-0.1,1.9,0.8,4H125C124.2,179.4,128,181.1,127.4,178.4L127.4,178.4z"/>
	<path class="st0" d="M189.5,179.9c-9.7,2.1-24.8-1.2-34.2,0.8c-0.4-3.9,7.1,0.2,8-2.4C170.4,180.4,182.4,177.8,189.5,179.9
		L189.5,179.9z"/>
	<path class="st0" d="M144.1,185.5c4.4-2.7,6.8,3.1,6.4,5.6c2.6-1.6,0.4-3.3,0.8-7.2c-6-1.7-6.8,1.5-11.1,3.2c0.3-1.9,1.3-3,0.8-5.6
		c-1.9,1-4.8,1-6.4,2.4c-0.2,4.2,0,7.9,0.8,11.1c-3.3,1.8-7.9,1.4-14.3,1.6c-6,4.6,1.4,17.7-3.2,23.9c-2.7-8.1-1.3-17.6-0.8-26.3
		c4.4-2,13.4,0.6,15.1-4c0.3-3.8-2.7-4.2-2.4-8c4.9-4.9,17.3-3.1,23.9-0.8c-0.1,2.9,1.6,4.6,1.6,7.2c0,4-3.5,7.5-3.2,11.1
		c0.2,2.3,1.8,2.8,1.6,5.6c-2.3-0.6-3.4-2.5-3.2-5.6c-1-3.4-8.7-4.5-11.1-1.6c0.4,8.7-3.7,16.5,0,23.9c1.1,2.1,4.2,2.2,4,5.6
		c-4.2,1.6-6.8-4.7-8.8-8c-0.7,0.6-1.2,1.4-1.6,2.4c-1.8-0.3-0.3-3.9-0.8-5.6h3.2c0.7-9.4,1.1-19,3.2-27.1c3.4-0.8,2.3,3,4.8,3.2
		C144.7,191.3,144,188,144.1,185.5L144.1,185.5z M144.9,194.3c3.1,0.7,7.8-1,4-2.4C149,194.2,143.7,190.9,144.9,194.3L144.9,194.3z"
		/>
	<path class="st0" d="M215,179.2c0.7,2.6,2.7,12.6-1.6,12.7v-9.6c-5.9,0.5-11.6-1.6-19.1-1.6C198.1,178.4,207.2,179.6,215,179.2
		L215,179.2z"/>
	<path class="st0" d="M203,187.1c-1.6,4.2,0.6,7.2,0,9.6c-10.7,3.8-31.3-3.6-43.8,4c9.2-0.6,22.3-2.7,31.9,1.6
		c-0.1,2.2,1.3,1.6,0,3.2c6,7.5,13,14.1,16.7,23.9c-2.9,4.3,0,9.9-1.6,15.1c-1.2,3.9-5.4,6.1-6.4,10.4c0.7,2.2,2.5-1.1,4.8,0
		c-1.1,6.3-4.9,10-12.7,9.6c-3.5,0.7-0.6,3.1-2.4,4.8c-4.3,1.1-16.6-3.5-21.5,0.8c-2-4.6-10.4-2.9-13.5-6.4c-4,0-6.2,1.8-8.8,3.2
		c0.1,3.5-1.5,5.3-5.6,6.4c0-4.8,3.1-9.6,4.8-11.1c2-1.9,5.4-1.4,5.6-3.2c0.2-2-4.3-3.1-5.6-4.8c-0.1-0.2,0-2.8-0.8-4
		c-0.4-0.6-2.1-1-2.4-1.6c-1.9-4.2-3.6-12.3-2.4-16.7c5.5,0,5.6,5.6,5.6,11.1c1.3,5.2,7.8,9,6.4,14.3c1.6,0.8,7-1,6.4,4
		c9.7,0.2,18.3,3.1,26.3,0.8c6.2-1.8,10-7.1,15.1-8.8c-0.4-7.7,3.2-13.9,3.2-20.7c-0.1-16.5-13.3-29.6-29.5-29.5
		c-4.7,0-8.6,2.8-14.3,1.6c-4.8-3.5-2.2-13.1-0.8-19.1c14.7-1.6,29,0.6,42.2-0.8C200.6,185.8,202,186.3,203,187.1L203,187.1z
		 M183.1,189.5c-6.2,0-13.2,0-15.9,0.8c-2.5-0.4-2.5,1.7-2.4,4c5.3,0,11.7,0,17.5,0c5.5,0,12.5,1.4,14.3-2.4
		C195.1,188.6,188.8,189.5,183.1,189.5L183.1,189.5z"/>
	<path class="st0" d="M297,213.4c-3.7-0.3-4-4-5.6-6.4c-3.5-1.6-5.1-5-8-7.2c-13.4-1.5-22.5-7.2-38.2-6.4c1.1-3.5,5.3-2.8,8-4
		c3-1.3,4.8-3.7,8.8-4c10.9-0.7,21.6,10.1,31.9,11.1C296,202,296.5,205.6,297,213.4L297,213.4z"/>
	<path class="st1" d="M196.7,191.9c-1.8,3.8-8.9,2.3-14.3,2.4c-5.8,0-12.3,0-17.5,0c-0.2-2.3-0.1-4.3,2.4-4
		c2.8-0.8,9.7-0.8,15.9-0.8C188.8,189.5,195.2,188.6,196.7,191.9L196.7,191.9z"/>
	<path class="st1" d="M148.9,191.9c3.8,1.4-0.9,3.1-4,2.4C143.7,190.9,149,194.2,148.9,191.9L148.9,191.9z"/>
	<path class="st0" d="M129,201.4c-1,14.1-0.5,22.3-2.4,32.6c1.2,2,2.1,4.2,4,5.6c-2.5,5.2,0.6,10.6-2.4,17.5
		c-0.6-8.9-2.7-16.5-7.2-21.5c1.3-5.6,0.8-13,4-16.7c-2.4-3.2-2.4-8.2-0.8-11.9c0.6-3.1-2.9-4.1-0.8-6.4
		C125.2,198.9,127.4,200.7,129,201.4L129,201.4z"/>
	<path class="st0" d="M200.7,203.8c3.8-0.4,6,0.9,7.2,3.2c2.3-1.1,5-2.4,8-0.8c0.1,13.4,4,22.6,2.4,31.9h-4
		c-0.4,8.7,0.2,17.6,0.8,26.3c0.4,5.6,4.1,12.9-1.6,12.7c0.6-12-2.5-25.8-3.2-39c1.9,0,2.3-1.4,4.8-0.8c0.8-3-1.1-5.6-1.6-8.8
		c-0.9-6.6,0.2-14.4-3.2-19.1c-0.7,3.3-0.5,10.2-4.8,8.8c-3.5-0.7-2-6.5-2.4-10.4C202.8,205.9,200.3,206.3,200.7,203.8L200.7,203.8z
		"/>
	<path class="st0" d="M146.5,209.4h2.4c0.3,1.7-0.5,2.1-0.8,3.2C146.7,212.4,146.3,211.2,146.5,209.4L146.5,209.4z"/>
	<path class="st0" d="M170.4,211c18.5-2.9,28.9,13.8,23.9,30.3c-3,9.8-13.5,15.9-25.5,13.5c-2.2-0.4-8.6-2.7-11.1-4.8
		c-0.5-0.4-0.4-2-0.8-2.4c-0.4-0.4-2.1-0.4-2.4-0.8c-0.3-0.4-3.8-8.7-4-9.6c-1.2-6.5,1.8-15.9,5.6-19.9
		C159.1,214.2,163,212.2,170.4,211L170.4,211z M156.1,229.3c-3.3,23.6,29.4,26.4,33.4,8.8c2.2-9.5-2.9-17.6-11.1-22.3
		c-3.5,0.5-9-1-11.1,0.8C161.5,219.4,156.9,223.3,156.1,229.3L156.1,229.3z"/>
	<path class="st0" d="M222.9,214.2c1.3-0.2,1.4,0.8,2.4,0.8c-0.5,16.3,2.6,41.8,0,62.9c-3-2.4-2.4-7.3-2.4-11.1
		C223,253.5,223.2,235.1,222.9,214.2L222.9,214.2z"/>
	<path class="st1" d="M167.2,216.6c2.1-1.8,7.7-0.3,11.1-0.8c8.2,4.7,13.3,12.8,11.1,22.3c-4.1,17.7-36.8,14.8-33.4-8.8
		C156.9,223.2,161.5,219.4,167.2,216.6L167.2,216.6z M164,222.2c0.1-0.1-4.7,6.8-4.8,7.2c-4,15.8,16.8,21.4,25.5,11.9
		c-1.3-3.7,0.7-4,2.4-6.4c-2.1-3-0.5-9.5-4.8-10.4c1.6,6.3-3.8,12.6-7.2,8.8c3-2.6,1-10.1,4.8-11.9C174.5,218,167.9,219,164,222.2
		L164,222.2z"/>
	<path class="st0" d="M179.9,221.4c-3.8,1.8-1.8,9.4-4.8,11.9c3.4,3.9,8.8-2.5,7.2-8.8c4.2,0.8,2.7,7.4,4.8,10.4
		c-1.7,2.3-3.7,2.7-2.4,6.4c-8.7,9.4-29.4,3.9-25.5-11.9c0.1-0.4,4.9-7.2,4.8-7.2C167.9,219,174.5,218,179.9,221.4L179.9,221.4z
		 M176,240.5c3.5,0.1,6.8-0.1,6.4-4C179.6,237.2,177.1,238.2,176,240.5L176,240.5z"/>
	<path class="st0" d="M117.1,222.9c1.4-0.3,1.5,0.6,1.6,1.6c-0.7-0.1-0.8,0.3-0.8,0.8C116.9,225.2,117.2,223.9,117.1,222.9
		L117.1,222.9z"/>
	<path class="st0" d="M230.1,226.1c1.3,1.6,4.6,1.2,4,4.8C231.7,230.4,230,229.1,230.1,226.1L230.1,226.1z"/>
	<path class="st0" d="M244.4,226.9c-0.2,2.4-3.1,2.2-3.2,4.8c-1.6-1-4-1.3-4-4C241.6,228.6,240.6,227.5,244.4,226.9L244.4,226.9z"/>
	<path class="st0" d="M270.7,235.7c4.3,2.6,5.4,8.4,7.2,13.5c-2,1.9-4.7,0-7.2,0C270.7,245,268.6,239.4,270.7,235.7L270.7,235.7z"/>
	<path class="st1" d="M182.3,236.5c0.4,3.8-2.9,4-6.4,4C177.1,238.2,179.6,237.2,182.3,236.5L182.3,236.5z"/>
	<path class="st0" d="M253.2,237.3c3.6,0.7,2.2,5.8-2.4,4.8c0.6-2.5-2.2-1.5-1.6-4C251.3,238.5,252,239.1,253.2,237.3L253.2,237.3z"
		/>
	<path class="st0" d="M91.6,241.3c1.6,3.5,0.4,8.2,0,11.9c-6.3,1.1-11.3-0.2-16.7-0.8C77,245.1,82.4,236.7,91.6,241.3L91.6,241.3z"
		/>
	<path class="st1" d="M402.1,266c-15.2-3.9-31.6-8.3-45.4-13.5c-4.5-1.7-10-1.9-11.9-6.4c-0.2-1.3,0.8-1.4,0.8-2.4
		c0.6-0.2,0.8-0.8,1.6-0.8c6.8,3.3,21.7,5.3,34.2,8c1.4,0.3,2.7,1.4,4,1.6c1.9,0.3,3.9-0.4,5.6,0c1.9,0.4,3.8,2.1,5.6,2.4
		c2,0.4,6.1-0.7,8,0C411.9,257.4,407.4,263.5,402.1,266L402.1,266z"/>
	<path class="st0" d="M216.6,244.4c4.4,0.4,3.6,9.4,2.4,12.7C217.7,253.8,214.4,248.7,216.6,244.4L216.6,244.4z"/>
	<path class="st0" d="M244.4,245.2c1,0.3,1.6,1,1.6,2.4C245.1,247.3,244.4,246.6,244.4,245.2L244.4,245.2z"/>
	<path class="st0" d="M130.6,254.8h2.4c0.4,6.1,0.7,18.6-7.2,19.1c-0.6-5.1,0.9-8.1,0.8-12.7c3.1-1.3,0.3,3.4,2.4,3.2
		C131.4,261.3,130.8,259.7,130.6,254.8L130.6,254.8z"/>
	<path class="st1" d="M43.8,260.4c1,0.3,1.3,1.4,2.4,1.6c-1,8.7,2.7,16.9-0.8,21.5c-6.2,0.1-0.8-11.4-4.8-13.5
		C43.1,266.4,40.7,263,43.8,260.4L43.8,260.4z"/>
	<path class="st0" d="M137.8,260.4c0.9-0.1,1.4,0.2,1.6,0.8c0.6,2.8-0.9,3.4-1.6,4.8c-1.4,4.1,3.2,9.2-1.6,9.6
		C135.7,269.8,135.2,264.7,137.8,260.4L137.8,260.4z"/>
	<path class="st1" d="M355.1,263.6c1.6,18,12.5,31.7,8,51c0.3,2.3,2.6,2.7,3.2,4.8c-1,2.5-1.5,5.4-5.6,4.8c-3.5-4.6-2.1-10-3.2-17.5
		c-0.9-5.9-3.1-14.2-4.8-23.1C350.7,272.8,345.6,266.1,355.1,263.6L355.1,263.6z"/>
	<path class="st0" d="M113.9,266c2.2,2.6,2.2,7.4,4,10.4c-3.5,0.8-3.7-1.6-5.6-2.4C112.9,271.4,112.8,268.1,113.9,266L113.9,266z"/>
	<path class="st0" d="M206.2,267.5h3.2c0.8,2.4-1.8,1.4-3.2,1.6C206.2,268.6,206.2,268.1,206.2,267.5L206.2,267.5z"/>
	<path class="st1" d="M312.9,273.9c2.2,5.5,1.4,14,3.2,19.9c-7.1,0-7.1-7-6.4-12.7c-0.2-2.9-3.5-5.5-1.6-8
		C309.4,271.8,311.2,273.4,312.9,273.9L312.9,273.9z"/>
	<path class="st0" d="M140.9,273.9c13.7,0.8,38.8,1.5,55.7,0.8c5.3-0.2,12-3.2,15.1,2.4c-20,0.6-39.8,1-68.5-0.8
		C141.6,276.4,140.8,275.6,140.9,273.9L140.9,273.9z"/>
	<path class="st0" d="M121,279.5c2.7,0.2,6.5-0.6,8,0.8c0.3,1.8-0.1,3.1-0.8,4C124.1,284.4,122.8,281.7,121,279.5L121,279.5z"/>
	<path class="st0" d="M211.8,280.3c-4.5,8.2-23-0.1-29.5,4c-15.4-3.5-27.3,1.8-38.2-1.6c-3.5,0-4.4,2.5-8.8,1.6c0.5-2.5-1.5-2.5,0-4
		C163.5,279.2,184.1,279.6,211.8,280.3L211.8,280.3z"/>
	<path class="st0" d="M228.5,279.5c-0.8,4.2-6.9,3.2-10.4,4.8c0.6-2.5-2.2-1.5-1.6-4C219.2,278.6,224.6,279.8,228.5,279.5
		L228.5,279.5z"/>
	<path class="st0" d="M88.4,283.5c1.3,3.1,4.7,10.2-0.8,11.1c-0.7-4.6-5.7-4.9-5.6-10.4C83.8,283.5,85.4,284.4,88.4,283.5
		L88.4,283.5z"/>
	<path class="st0" d="M211,286.6h1.6v1.6H211V286.6L211,286.6z"/>
	<path class="st1" d="M231.7,293c1.9-2.7,5.7,2.1,3.2,4C232.7,296.8,233.1,294,231.7,293L231.7,293z"/>
	<path class="st1" d="M84.4,347.2c-1.6,11.2-23.7,8.9-29.5,4.8C59.4,345.5,77,348.1,84.4,347.2L84.4,347.2z"/>
	<path class="st1" d="M321.7,359.1c0.1,7-5.8,8-11.9,8.8c0-1.9-1.4-2.3-0.8-4.8C314.2,362.8,315.8,358.7,321.7,359.1L321.7,359.1z"
		/>
	<path class="st0" d="M25.5,368.7h2.4c2.7,3.4,4.3,7.7,8,10.4c2.4,1.7,7.8,4.5,11.1,5.6c2.4,0.7,5.4,0.1,8,0.8c1,0.3,1.9,2,3.2,2.4
		c3.4,1.2,7.9,0.5,11.1,1.6c2.3,0.8,7.3,4.6,12.7,3.2c8.8,4.2,19.7,6.3,23.9,15.1c-0.5,3.8-5.2,7.5-4,10.4c-2.8,2.7-0.6-6.3-3.2-6.4
		c-1.9,1-4.3,1.5-4.8,4c-21.2-11.5-49.9-15.4-71.7-26.3C24.6,383.7,26.1,377.3,25.5,368.7L25.5,368.7z"/>
	<path class="st0" d="M86,388.6c4.8,0.2,9.9,3.4,14.3,5.6c3.9,1.9,11.4,3.5,8.8,9.6c-4.5-2.6-9-5.3-11.9-9.6
		C92.6,393.1,87.1,393.1,86,388.6L86,388.6z"/>
	<path class="st1" d="M301.8,430c-0.5,2.4-1.7,4.1-2.4,6.4C287.5,437.3,296.3,422.2,301.8,430L301.8,430z"/>
	<path class="st1" d="M356.7,140.1c2.1,1.8,4-3.4,8-2.4c3.4,0.6,4.2,3.7,6.4,5.6c0.8,7.1-0.8,14.1-0.8,20.7
		c0,13.5,1.5,25.6-7.2,33.4c-1.4,9.5-4,17.8-8,24.7c-2.8,0.3-4.2,2.1-8,1.6c-3.2,5.7-1.8,12.4-3.2,18.3c-0.5,2.1-2.3,3.3-3.2,5.6
		c-1.3,3.2-0.6,6.9-1.6,9.6c-0.7,1.9-3,3.5-4,5.6c-2.5,5-3.1,9.4-7.2,12.7c-1.5,1.5-1.4-0.5-4,0c1.5,12.9,4.1,24.5,6.4,36.6
		c3.9-2,2.4-7,3.2-10.4c0.8-3.5,2.5-6.7,3.2-10.4c0.7-3.8,0.1-8,0.8-11.9c0.3-1.6,1.4-3.2,1.6-4.8c0.5-5.8-2.6-16.9,4.8-19.1
		c0,24.1-6.5,42.5-8,62.9c-1.8,1.4-2.6,3.7-4,5.6c2.2,7.1,4.2,14.4,6.4,21.5c2.5,1.1,3.6,1.1,5.6,2.4c3,2,2.2,4,8.8,3.2
		c4.9,3.5,7.9,8.6,11.9,13.5c1.4,1.7,2.1,3.4,3.2,4.8c5,5.9,13.5,10.2,15.1,19.1c-4.6,3.9-7.2-0.7-9.6-3.2
		c-7-7.4-13.2-19.4-21.5-25.5c-2.3,5.4,1.2,16.6-3.2,19.9c-3.1,18.9-15.7,32.7-26.3,45.4c-5,6-6.8,10.5-13.5,13.5
		c-1.5,2-2.5,4.4-4,6.4c-4,0.4-6,4.8-9.6,3.2c-1.6-3.6,3-5.3,4.8-7.2c11-11.5,23.1-24.1,33.4-37.4c0.8-6.2,7.8-13.7,10.4-19.9
		c0.6-1.5,0.3-3.9,0.8-5.6c1.2-3.7,8-20.3-1.6-21.5c-1,6.7-3.9,11.5-4.8,18.3c-3.1,1.1-3.7,4.8-5.6,7.2
		c-4.8,7.9-11.6,13.9-15.9,22.3c-5.5,2.2-6.7,8.7-12.7,10.4c-2.3,4.7-8.2,9.7-12.7,9.6c-1.2-9.8,13.3-10.6,15.9-19.1
		c0.1-4-3.5-4.4-4.8-7.2c-0.6-2.4-0.2-5.6-2.4-6.4c-2.9,2-4.2,6.6-5.6,10.4c-1.4,3.9-1.7,8.6-4.8,11.1c0.6,5.4-1.1,8.4-5.6,8.8
		c-1.9-4,0.8-11.6,3.2-17.5c2.2-5.4,6.1-10.6,8-15.1c-0.1-2.2,2.3-2,3.2-3.2c-2.5-5.5-4.6-11.4-8-15.9c-3.2-3.4-9.1-5.4-11.9-9.6
		c-2.8-4.1-2.2-9.9-4-14.3c-2.6-6.7-9.5-10.8-13.5-16.7c-0.7-1-0.9-2.9-1.6-4c-1.6-2.9-3.5-6.4-5.6-10.4
		c-7.7,2.1-11.9,7.8-18.3,11.1c-15.8,4.2-26.4-11.7-13.5-17.5c-0.9-4.1-6-5.1-2.4-9.6c2.8,0.6,2.7,4.2,5.6,4.8
		c5.4-0.7,7.5-4.7,12.7-5.6c9-9.3,20-16.7,25.5-29.5c2.4-0.3,1.7,2.6,2.4,4c6.5-0.5,10.1,2.2,15.1,1.6c8.9-1.1,14.3-12.3,23.1-8
		c0.6,4.4-4.7,4.2-7.2,5.6c-7.5,4.1-16.4,9.2-25.5,12.7c-5.9,0.4-13.7,2.5-17.5,5.6c-7.8,6.3-15.8,12.9-24.7,18.3
		c-3,1.8-7.2,2.6-8.8,6.4c4.5,3.9,12.4-0.2,12.7-5.6c4.6,4.4-2.6,7.8-4.8,10.4c7.2,1.1,15.4-3.7,19.1-8.8c7.6-0.4,13.5-4.7,19.9-8
		c3.5-1.8,9.3-0.9,14.3-1.6c4.3-0.6,7.7-4,11.9-1.6c0,5.3-5.1,5.5-10.4,5.6c3.5,7.9,17.4-0.6,19.9,5.6c-4.8,8.1-18,1.8-23.1-1.6
		c-1.6-1.9-1.6-2.1,0-4c-9.5-0.7-13.2,4.3-19.1,7.2c1.9,9.5,7.8,15.1,13.5,20.7c3-5.7,1.7-12.5,4-17.5c5.2,2.1,3.5,11.3,3.2,18.3
		c-0.3,6.1-1.9,13.1,0,18.3c2.8,7.5,10.4,7.7,13.5,14.3c8.1,0.9,15.8,2.2,18.3,8.8c-4.3,3.1-8.4-2.5-14.3-2.4c-1.9,3.1,2.6,5.6,4,8
		c1.1,8.2,6.8,11.8,8.8,19.1c5.7-2.3,6-9.9,11.9-11.9c5.4-10.6,21.6-25,11.1-39c-2.5-0.1-4.5,1.9-6.4,0c0.4-9.4-1.7-16.3-3.2-23.9
		c-0.1-1.5-2.7-0.5-3.2-1.6c-0.4-10,1.6-22.3-3.2-27.9c1.3-12-3.8-18.8,0-25.5c-1.2-8.3-3.3-17-11.1-22.3
		c-6.1-15.4-15.1-27.9-22.3-42.2c-7.4-3.8-16.4-3.1-24.7-5.6c-4.7-1.4-8.4-4.4-13.5-4.8c-4.6-0.3-9.4,1.2-14.3,1.6
		c-4.2-2-13.5-5.3-17.5-2.4c0.9,6.2,11.1,8.2,15.9,5.6c-0.9,8.9-9.4,0.9-15.9,1.6c0.1,5.4,5.2,6,7.2,9.6c6.4,0.6,11.3,4.8,17.5,4
		c2.2-0.3,2.7-2,4.8-1.6c2.7,0.5,3.4,2.4,6.4,4c6.4,3.5,13.5,5.6,22.3,7.2c0.2,10.1,4.8,16,8.8,22.3c2.5-1.6-0.2-3.8,2.4-5.6
		c3.1,0.7,0.4,7,3.2,8c5.4,1.6,12.6-2.8,17.5,0.8c-4.1,5.2-12.6,4.5-19.1,4c-11.4-1-25.4-4-34.2-3.2c-7.5,5.8-11.6,15-18.3,21.5
		c-1.2,2.8,2.6,4.8,0.8,5.6c-3.8,6.5-8.5,12.2-12.7,18.3c-20.5-3.6-42.1,1.4-60.5-2.4c-9.2,2.2-24,0.9-34.2,0.8
		c-1.1-6.8-7.4-8.5-11.1-12.7c-4.8,3.7-0.8,9.7-2.4,14.3c-2.1,6.2-10.6,8-11.9,14.3c6.2,16.3,3.6,33.2-9.6,42.2
		c-1.7,10-4.3,19-6.4,28.7c10.3,3.2,18.8,8.3,28.7,11.9c0,12.5-4.3,20.6-4.8,32.6c-3.5,0.1-3.7,3.1-6.4,3.2
		c-4.3,0.1-7.4-6.3-10.4-8.8c-5.4,0-9.5-4.5-14.3-6.4c-1.9-0.7-4.3-0.1-6.4-0.8c-1.8-0.6-3-2.6-4.8-3.2c-2.9-1-6.5-1.4-9.6-2.4
		c-3.1-0.9-6-2.5-8.8-3.2c-2.8-0.7-6.1-0.1-8.8-0.8c-6.3-1.7-10.6-6.3-16.7-7.2c-2.5-3.6-5.6-6.6-9.6-8.8
		c-5.9,2.1-3.4,12.5-6.4,17.5c-3.1,1.7-6.3,0.4-8-1.6c-0.2-8.1,4.5-11.4,5.6-18.3c5.8-1.6,5.7-9.1,12.7-9.6c1.4-2.9,2-6.5,1.6-11.1
		c3.4-2.7,6.8-5.4,11.1-7.2c3.7-14.2,1-29.8-1.6-44.6c-0.2-1.2-1.5-2.7-1.6-4c-0.3-2.6,1.1-4.8-1.6-7.2c0.7-11.4-3.2-15.5-0.8-23.9
		c-2.4-4.7-3.5-10.8-4-17.5c-0.8-1.6-2-2.8-3.2-4c3.4-13.1,8.2-24.7,12.7-36.6c-1.3-5.8,3.3-10.6,4.8-15.9c1.1-4,0.5-8.8,1.6-12.7
		c0.8-3.1,3.2-5.5,3.2-8.8c7.9-6.7,16.7-12.4,22.3-21.5c4.3-1.4,7.4-4.1,11.1-7.2c3.7-3,7.4-8.7,14.3-8.8c6.5-0.1,15.6,2.3,26.3,1.6
		c5.2-0.4,10.1-3.2,13.5,0.8c0.2,6.3-2.2,10-6.4,11.9c0.7-2.5-0.7-3-1.6-4c-6.5,0.5-7.8,1.9-14.3,1.6c-3.4,0-3.1-3.8-5.6-4.8
		c-18.9-4.1-24.6,8.7-35,17.5c-3.3,2.8-7.2,3.8-9.6,7.2c2.6,3.1,6.1,1.3,9.6,1.6c4.3,0.3,9.4,1.9,13.5,0.8c4.1-1.1,5.1-5.8,9.6-8.8
		c3.5-2.4,9.2-3.8,15.1-4.8c5.3-0.9,10.1-1.4,15.9-4.8c2.4-0.8,1.4,1.8,1.6,3.2c21.4-1.4,30.5,0.8,54.1-0.8
		c-1.8-5.1-8.9-4.9-7.2-13.5c-3.6,1.7-1.2,9.5-3.2,12.7c-5.1-7.4-3.3-24.8,6.4-25.5c2-0.1,3.6,1.7,6.4,4c-1.2-8.4-4.4-16.7-5.6-24.7
		c-0.3-2.1,0.2-4.4,0-6.4c-0.6-4.7-1.3-8.9-2.4-15.1c-0.3-1.6-1.6-3.9-1.6-5.6c0-1.8,0.5-6.6,1.6-9.6c0.9-2.6,3.9-4.6,4.8-7.2
		c1-3-0.7-7.8,0-11.1c0.4-1.9,2-4.1,4-7.2c1.5-2.3,2.6-4.8,4-7.2c1.2-2.2,3.3-4,4.8-6.4c3.1-4.8,5-9.7,8.8-13.5c2.6-2.7,6.5-4,8-7.2
		c3.3-0.6,6.2-0.7,9.6-2.4c5-2.4,6.9-5.6,13.5-8.8c4-1.9,7-2,11.9-4c2-0.8,3-2.7,4.8-3.2c5.1-1.4,12.9-2.3,18.3-2.4
		c9.2-0.2,21.6,4.4,33.4,5.6c6.9,0.7,15.3-0.7,20.7,1.6c1.5,0.6,2.8,2.8,4.8,4c6.4,3.8,13.4,8,18.3,14.3c3,0.5,3.9,3,7.2,3.2
		c3,8.4,4.1,18.7,9.6,24.7c0,3.4,0.1,5.2,1.6,8c0.4,0.7,0.3,2.1,0.8,3.2c1.4,2.8,4.3,5.3,4.8,8c0.5,2.8-1,6.3-1.6,11.1
		c-1.1,9.6,1.6,22.1,0,35.8c-0.2,1.7-2.2,3.5-2.4,5.6c-0.2,1.8,1.2,3.2,0.8,4.8C359.1,133.4,356.6,136.7,356.7,140.1L356.7,140.1z
		 M143.3,192.7c-2.5-0.2-1.3-4-4.8-3.2c-2,8-2.5,17.6-3.2,27.1h-3.2c0.5,1.6-1,5.2,0.8,5.6c0.4-0.9,0.8-1.8,1.6-2.4
		c2,3.3,4.5,9.6,8.8,8c0.2-3.4-2.9-3.5-4-5.6c-3.7-7.4,0.4-15.1,0-23.9c2.4-2.9,10.1-1.8,11.1,1.6c-0.2,3.1,0.8,5,3.2,5.6
		c0.2-2.8-1.4-3.2-1.6-5.6c-0.4-3.7,3.2-7.2,3.2-11.1c0-2.5-1.7-4.3-1.6-7.2c-6.6-2.3-19-4.1-23.9,0.8c-0.3,3.8,2.7,4.2,2.4,8
		c-1.8,4.6-10.8,2-15.1,4c-0.5,8.6-1.9,18.2,0.8,26.3c4.5-6.2-2.8-19.3,3.2-23.9c6.5-0.2,11.1,0.2,14.3-1.6c-0.8-3.2-1-7-0.8-11.1
		c1.6-1.4,4.5-1.4,6.4-2.4c0.5,2.6-0.5,3.7-0.8,5.6c4.3-1.6,5.2-4.9,11.1-3.2c-0.4,3.9,1.8,5.6-0.8,7.2c0.4-2.4-2-8.3-6.4-5.6
		C144,188,144.7,191.4,143.3,192.7L143.3,192.7z M274.7,13.5c-3.7-1.7-7.9-3.5-11.9-0.8c-5.7-3.6-12.5,2-19.9,1.6
		c-5-4.7-7.9,1.1-11.9,4c-6.8,4.9-12.2,6-22.3,5.6c-3.4,4.2-8.5,7-11.9,11.1c-2.2,2.7-3.9,6.3-5.6,9.6c3.9,0.2,5-2.4,8.8-2.4
		c5.3,1.8,5.5,8.8,9.6,11.9c2.4,0.5,5.2-0.8,7.2,0c1.8,0.7,1.4,2.6,2.4,4c1.6,2.2,6.7,4.2,4.8,8c-6.5,1.2-14.7,0.7-19.9,3.2
		c-2.3,3.1,0.5,7.2-4,8.8c-6.1-1.9-17.6-4-11.9-12.7c1.9-0.5,3.6-1.1,6.4-0.8c-2-6,2-10.7,8-11.1c-0.7-2.2,1.1-2.1,0.8-4
		c-0.3-1.9-2.5-1.8-3.2-3.2c-5.9,0.5-7.7,5-13.5,5.6c-1.8,3.2-2.5,7.6-5.6,9.6c0.1,13.4-5.8,19.9-4,35c1.7,1,1,4.3,4.8,3.2
		c-0.8-5.2-2.1-6.8,0.8-10.4c-0.3-1.9-3.8-0.5-3.2-3.2c0.7-1.4,1.5-2.8,4-2.4c0.7-2.6-2.6-1.1-2.4-3.2c1.6-2.4,6.5-1.4,10.4-1.6
		c2,2.1,0.3,4.3,2.4,7.2c-5.6,7.1-2.5,19.6-6.4,27.1c2,1.8,6.1,1.3,6.4,4.8c-0.3,2.9-6,0.4-7.2,2.4c2.1,1.6,7.8-0.3,8,3.2
		c-0.5,6.1-6.4,6.9-8.8,11.1c3.1,6.8,1.4,13.5,1.6,23.1c-1.5,0.3-2,1.7-4,1.6c-5.7-4.3-5.5-20.6-15.9-15.1c0.1,3,4.4,1.9,4.8,4.8
		c1.4,5.2,5.1,8.2,4.8,15.1c14,1.3,29.3,1.2,42.2,0c0.1-4.1-0.8-9.3,2.4-10.4c3.4-0.6,9.4,1.5,10.4-1.6c-4.9-1.3-12-2.5-18.3-1.6
		c-4.2,0.6-8.5,4.5-10.4,1.6c1.5-3.8,4.8-5.8,8-8c4.2,1.4,6.9-2,10.4-2.4c6.6-0.7,13,2.7,20.7,0.8c5.5,3.3,13.4,4.2,14.3,11.9
		c-3.3,2.7-6.1-1.8-8.8,0c-1.4,2.9-1.9,6.1-0.8,9.6c6.4,1.4,15.2-2,21.5,1.6c0.5,5,0.1,11.6,1.6,17.5c11.3,8.8,36.6,3.7,31.9,28.7
		c7.5,1.5,13.5,4.6,15.1,11.9c-0.7,1.2-1.2,2.5-3.2,2.4c-5-2.4-6.4-8.4-11.9-10.4c-0.5,8.5,1.9,14,6.4,17.5c2.7-2.1,7,0.9,8,3.2
		c-0.6,0.2-0.9,0.7-0.8,1.6c-0.2,2.5-5.2,0.1-4.8,3.2c1.7,7.5,10.3,12.3,11.9,19.1c1,4.1-1.4,8.9,0.8,14.3c3.5-2,5.2-7.5,7.2-11.9
		c3.1-6.8,5.4-11.3,6.4-19.1c0.6-4.7,3.5-10.6,0.8-14.3c-1.2,1.1-0.6,4.2-3.2,4c-0.9-6.1,3.5-14.8,4-19.1c0.4-3.2,1.1-5.4,1.6-7.2
		c0.4-1.2-0.4-2.8,0-4c1.2-3.7,2.8-7,4-11.1c1.6-5.4,4.5-12.7,4.8-19.1c1.2-2.6,2.9-0.9,5.6-0.8c1.4-8.4,4.7-14.9,8-21.5
		c2.5-0.4,3.1,1.7,4.8,0c-0.5-4.3-1.7-7.9-5.6-8.8c-4.6,3.1-6,9.4-8.8,14.3c-0.2,4.3,1.1,10.2-3.2,10.4c0.6-2.2-1.6-1.6-1.6-3.2
		c0.8-10.5-0.7-28.7-0.8-38.2c-3.1-4.4-5.4-9.5-5.6-16.7c0.3-1.5,3.1-0.6,2.4-3.2c0.6-14.7-6.7-20.7-11.1-32.6
		c-0.2-1.9-3.8-0.5-3.2-3.2c3.7-2.4,8-4.2,14.3-4c0.5,3.5,3.6,4.4,4,8c-1.2,1.2-4.5,0.2-4,3.2c1.7,1.5,5.3,1.1,6.4,3.2
		c0.5,3.9-0.6,7.4,0,10.4c0.3,1.4,1.8,1.3,2.4,2.4c0.8,1.5-1.3,5,1.6,4c3.6-2.5,1.1-13.7,1.6-16.7c1.4-1.3,2-3.3,1.6-6.4
		c-12.4-2.8-11.8-18.5-18.3-27.1v-5.6c-3.7-4-12.3-3.7-15.9,0c-0.9-0.9-2.8-0.9-4.8-0.8c-9.4,6.1-19.7,11.9-26.3,20.7
		c-0.8,1-0.6,2.3-1.6,3.2c-1.8,1.7-4.4,4.3-7.2,4c-1.9-1.6,0-2.4,0.8-4c3.5-7.2,10.1-11.1,15.1-15.9c-2.8-4.8-4.8-11.9-10.4-13.5
		c-2.9-0.8-5.9,1.6-9.6,0c-11.9,6.4-21.5,15.1-28.7,26.3c0.3,1.5,3.6,0.1,2.4,3.2c-7-2-4.3,5.8-10.4,4.8c-0.9-2.8,1.9-4.6,3.2-6.4
		c1.4-2,2.6-4.7,4-6.4c1.2-1.5,4.1-2.3,5.6-4c1.3-1.5,1.2-3.6,2.4-4.8c2.9-2.8,8-4,8.8-8.8c-4.5-3.5-6.9,1.9-11.9,2.4
		c-2.4-4.2-5.2-2.8-8.8-3.2c2.7-6.6,9.1-9.4,13.5-14.3c10.5,1.1,19-2,29.5,0c3,0.9,2.3-2,4.8-1.6c2.8,2.3,8.1,2,10.4,4.8
		c2.5-0.4,2.8-3,5.6-3.2c0.8,3.2-4.6,2.5-2.4,4.8c5.1-0.5,11.4,3,12.7-2.4c-3.4-1.6-5.7-4.3-8.8-6.4c-3.1,3-8.3,0.3-11.9,1.6
		c-4.9-8.5-16.2-2-23.9-2.4C274.6,17.4,274.6,15.5,274.7,13.5L274.7,13.5z M180.8,105.9c1-0.9,0.6-3.3-1.6-3.2
		C178.9,104.5,179.3,105.7,180.8,105.9L180.8,105.9z M106.7,153.7c2.7,0.8,7.5-1,10.4-0.8C115.8,149.4,108.7,152.7,106.7,153.7
		L106.7,153.7z M223,165.6c-1.9,0.5-2.1,2.6-4,3.2c-32.9,0.5-67.9-1.1-99.5,0.8c0.1,4.1,0.3,8.3-1.6,10.4c-5.2,1.5-10.3-0.5-15.1,0
		c-3.4,0.3-8.6,1.1-9.6,3.2c7.1,0.5,22.4,2.3,30.3-0.8c1.4-1.9-2-4.5-0.8-8.8c1.6-0.2,1.6-2.2,3.2-2.4c25.5,0.1,62.2,1,88.4,0
		c2.2,1,2.3,4.1,4.8,4.8c2.1-1.6-3.2-4.7,1.6-4.8c3.4,0.6,2.2,5.8,2.4,9.6c8.8,0.5,19.3-0.1,23.9-1.6c1.3-0.4,4,0.8,3.2-1.6
		c-1.9-0.5-5.3-0.1-4.8-4.8c0.6-0.2,0.9-0.7,0.8-1.6c6.9-0.5,15.8,3,19.9-1.6c-6.3-1.9-16.1,0-20.7-1.6c-1.6-3.1,0.1-9.6-2.4-11.9
		C233.1,155.6,215.8,154.3,223,165.6L223,165.6z M359.9,167.2c1,2.5,3.7,3.2,3.2,7.2c-0.9,3.3-4.4,2.8-6.4,3.2
		c-0.6,2.8-2.6,4.3-5.6,4.8c-0.1,3.4-1.3,5.6-0.8,9.6c2.8,0.5,2.6-3.8,4.8-1.6c-0.3,2.9-0.2,6.2-2.4,7.2c-2-0.1-2.5-1.5-4,0
		c0.9,8.1-3.5,14.2-1.6,20.7c9.7-1.7,9.3-13.6,13.5-20.7c-2-1.5,0.7-2.8-0.8-4.8c5.2-6.2,8.3-14.6,7.2-27.1
		c-1.1-1.2-1.7-3.1-2.4-4.8c1.6-0.5,3-1.2,2.4-4C361.4,157,360.2,161.7,359.9,167.2L359.9,167.2z M103.5,172.8
		c2.1,1.5,7.3,0.8,9.6,0C113,168.4,104.2,170.5,103.5,172.8L103.5,172.8z M93.2,173.6c2.4-0.2,6.2,0.9,6.4-1.6
		C97.5,172.6,92.7,170.4,93.2,173.6L93.2,173.6z M113.9,175.2c-0.5,3.4,4,2.5,3.2-0.8C115.7,174.3,114.6,174.6,113.9,175.2
		L113.9,175.2z M85.2,180.8c2.6,1.1,5.2-0.7,5.6-4C88.2,175.6,85.1,177,85.2,180.8L85.2,180.8z M125,182.3h3.2c-0.9-2,2.7-4.1-0.8-4
		C128,181.1,124.2,179.4,125,182.3L125,182.3z M163.2,178.4c-0.8,2.6-8.4-1.5-8,2.4c9.5-2,24.5,1.3,34.2-0.8
		C182.4,177.8,170.4,180.5,163.2,178.4L163.2,178.4z M194.3,180.8c7.5,0,13.3,2.1,19.1,1.6v9.6c4.3-0.2,2.3-10.1,1.6-12.7
		C207.2,179.6,198.1,178.4,194.3,180.8L194.3,180.8z M98.7,187.9c-8-2.3-20.5-1.2-27.9-2.4c-6.6-1.1-19.8-3.2-24.7,0
		c-1.3,12.3-4.8,19.6-6.4,32.6c-2.5,4.4-4.7,9.1-4.8,15.9c-6.1,7.8-12.2,23.4-4.8,33.4c1.2-6.8-1.4-13.8,3.2-15.1
		c2.4-0.7,0.2,4.6,0,3.2c0.5,5,3.2,12.6,0,16.7c1.4,3.4,1.8,7.7,1.6,12.7c-1.4-0.1-2.5,0.2-3.2,0.8c-0.1,6.1,2.2,11,3.2,14.3
		c3.2,10.4,2.3,21.6,4.8,31.1c3.5,13.2-4.3,26.2-4.8,40.6c5.3,2.6,10.6,7.6,17.5,9.6c2.7,0.8,5.8,0,8.8,0.8
		c6.4,1.6,13.1,7.4,19.9,4.8c1.9-9.7,1-16.1,3.2-23.1c-4.9,0-7.8,8.6-13.5,10.4c-1.5-8.2,9.6-11.6,14.3-17.5c2-2.6,2.6-6.4,4.8-8.8
		c0.5-0.5,1.9-0.2,2.4-0.8c1.6-1.8,2.2-3.6,4.8-4c2.1-10.5,3.7-24.9-0.8-33.4c-6.9-3.7-8.2-13-15.1-16.7c-3.2-0.8-2.4,2.4-5.6,1.6
		c-1.8-1.7,0.7-2.7,0-5.6c-5-0.4-15.4,3.5-15.9-1.6c-0.1-0.5,3.8-2.9,4.8-3.2c4.7-1.2,14.1,2.3,14.3-4c-2.3-0.6-4.5-3.9-2.4-6.4
		c4.4,1.3,5.1,5.1,9.6,5.6c5.3,0.5,10.2-6.1,14.3-2.4c0.1,3-3.3,2.6-4.8,4c0.7,3.9-0.7,5.6-1.6,8c1.1,2.3,4.2,2.7,4,6.4
		c-1.6,1.1-3.8,1.5-5.6,2.4c1.4,2.8,2.3,6.2,5.6,7.2c5-3.5,11.2-6.1,12.7-11.9c2.1-7.9-3.7-17.5-1.6-27.9c-1-0.3-1.6-1-1.6-2.4
		c-9-5.1-28.7-4-38.2-6.4c-5.3-1.3-14.7,0-15.1-6.4c4-0.4,9.5,0.6,11.1-4c2.8,1.6,0.5,4,3.2,4.8c3.4-2.5,4.5-7.2,7.2-10.4
		c-0.9-3,0.9-10.2,5.6-10.4c2.3,4.7-6,6.3-1.6,8c2.8-2.2,3.8-6.3,7.2-8c2.2,0.8,1.8,4,2.4,6.4c5.5,1.4,13.1-2.6,15.1,3.2
		c0,3.4-5,1.9-7.2,3.2c0.4,4.1-2.3,5.2-1.6,9.6c2.9,2.9,7.5,4.1,11.9,5.6c2.6-2.2,3.5-6,6.4-8c0.5,4.5-1,11.1,0.8,14.3
		c0.5-5.8,4.4-12.1,0-15.9c-0.7-5.8,5.8-10.3,5.6-14.3c-0.3-6.6-10.8-10.5-15.9-13.5c-5-2.9-10-5.3-15.1-8
		c-7.2-3.7-9.9-6.8-17.5-5.6c-6.4,4.1-9,10.6-12.7,16.7c-4.1,6.7-10,12.5-12.7,19.9c-4.4,1.7-4.8,7.4-10.4,8
		c-0.2-1.1-1.3-1.3-1.6-2.4c2.3-7.3,9.5-9.6,11.1-17.5c6.5-5.2,10.7-12.7,14.3-20.7c1.7-1.5,4.2-2.2,4-5.6c-1.6-0.8-4.2-5.2-0.8-6.4
		c3.6-0.4,2.1,4.2,5.6,4c5.9-3,12.9-1.1,17.5,1.6c3.1-0.7,4.9-5.4,8-1.6c-0.4,2.3-3.4,1.9-4,4c4.1,2.8,8.3,5.5,13.5,7.2
		c1,2.3,4.2,5.3,6.4,4c1-6.2-3.4-13.5-5.6-19.1c-0.4-2.5,4-0.3,3.2-3.2c-0.8-2.2-3.4,0.2-4.8,0C102.7,191.9,100.3,190.3,98.7,187.9
		L98.7,187.9z M199.9,184.7c-13.2,1.4-27.5-0.8-42.2,0.8c-1.4,6-4,15.6,0.8,19.1c5.8,1.2,9.7-1.6,14.3-1.6
		c16.2-0.1,29.4,13,29.5,29.5c0,6.8-3.6,13-3.2,20.7c-5.1,1.7-9,7-15.1,8.8c-7.9,2.3-16.6-0.6-26.3-0.8c0.6-5-4.8-3.2-6.4-4
		c1.5-5.4-5-9.2-6.4-14.3c0-5.6,0-11.1-5.6-11.1c-1.2,4.4,0.5,12.6,2.4,16.7c0.3,0.6,2,1,2.4,1.6c0.8,1.2,0.7,3.8,0.8,4
		c1.3,1.7,5.8,2.8,5.6,4.8c-0.2,1.8-3.6,1.3-5.6,3.2c-1.7,1.6-4.8,6.4-4.8,11.1c4-1.1,5.7-2.9,5.6-6.4c2.6-1.4,4.7-3.2,8.8-3.2
		c3.2,3.5,11.5,1.8,13.5,6.4c4.9-4.3,17.2,0.3,21.5-0.8c1.8-1.6-1.1-4.1,2.4-4.8c7.9,0.4,11.6-3.2,12.7-9.6c-2.3-1.1-4,2.2-4.8,0
		c1-4.3,5.2-6.4,6.4-10.4c1.6-5.3-1.3-10.8,1.6-15.1c-3.7-9.8-10.7-16.3-16.7-23.9c1.3-1.6-0.1-1,0-3.2c-9.6-4.3-22.7-2.2-31.9-1.6
		c12.5-7.5,33-0.1,43.8-4c0.6-2.3-1.6-5.4,0-9.6C202,186.3,200.6,185.8,199.9,184.7L199.9,184.7z M293.8,196.7
		c-10.2-1.1-21-11.8-31.9-11.1c-4,0.3-5.8,2.7-8.8,4c-2.6,1.2-6.9,0.5-8,4c15.7-0.8,24.8,4.9,38.2,6.4c2.9,2.2,4.5,5.6,8,7.2
		c1.6,2.4,1.9,6,5.6,6.4C296.5,205.6,296,202,293.8,196.7L293.8,196.7z M123.4,200.7c-2.1,2.2,1.4,3.3,0.8,6.4
		c-1.6,3.7-1.7,8.8,0.8,11.9c-3.1,3.8-2.7,11.1-4,16.7c4.5,5,6.5,12.6,7.2,21.5c3-6.9-0.1-12.3,2.4-17.5c-1.9-1.3-2.8-3.5-4-5.6
		c1.9-10.4,1.4-18.5,2.4-32.6C127.4,200.7,125.2,198.9,123.4,200.7L123.4,200.7z M203,207.8c0.4,3.9-1.2,9.6,2.4,10.4
		c4.2,1.5,4.1-5.5,4.8-8.8c3.4,4.7,2.2,12.5,3.2,19.1c0.4,3.1,2.4,5.8,1.6,8.8c-2.4-0.6-2.9,0.8-4.8,0.8c0.7,13.2,3.8,27,3.2,39
		c5.6,0.2,2-7.1,1.6-12.7c-0.6-8.7-1.1-17.6-0.8-26.3h4c1.6-9.3-2.3-18.4-2.4-31.9c-2.9-1.6-5.6-0.3-8,0.8c-1.1-2.3-3.4-3.5-7.2-3.2
		C200.3,206.3,202.8,205.9,203,207.8L203,207.8z M148.1,212.6c0.2-1.1,1.1-1.5,0.8-3.2h-2.4C146.3,211.2,146.7,212.4,148.1,212.6
		L148.1,212.6z M156.1,217.4c-3.8,4-6.8,13.4-5.6,19.9c0.2,0.9,3.7,9.2,4,9.6c0.3,0.4,2,0.4,2.4,0.8c0.4,0.4,0.3,2,0.8,2.4
		c2.6,2,8.9,4.3,11.1,4.8c12,2.3,22.5-3.7,25.5-13.5c5-16.5-5.3-33.2-23.9-30.3C163,212.2,159.1,214.2,156.1,217.4L156.1,217.4z
		 M222.9,266.7c0,3.9-0.6,8.8,2.4,11.1c2.6-21.1-0.5-46.6,0-62.9c-1,0-1.1-1-2.4-0.8C223.2,235,223,253.5,222.9,266.7L222.9,266.7z
		 M117.8,225.3c0-0.5,0.1-0.9,0.8-0.8c-0.1-1-0.2-1.9-1.6-1.6C117.2,223.9,116.9,225.2,117.8,225.3L117.8,225.3z M234.1,230.9
		c0.6-3.5-2.6-3.2-4-4.8C230,229.1,231.7,230.4,234.1,230.9L234.1,230.9z M237.3,227.7c-0.1,2.7,2.3,3,4,4c0.1-2.5,2.9-2.4,3.2-4.8
		C240.6,227.5,241.6,228.6,237.3,227.7L237.3,227.7z M236.5,242.1c-2.6-0.4-2.7-3.1-4-4.8c-2.9,0-3.5,2.3-3.2,5.6
		c3.8-0.4,5.5,1.4,6.4,4c-2.4,0.6-2.3-1.4-4.8-0.8c2.7,3.4-0.5,5.8-0.8,10.4c2.5-1.2,3.5-0.3,6.4,0c0.6-2.7-3.2-1-2.4-4
		c3.8-2.2,1.9-12,8.8-8.8c-1.8-4.3-6.5-5.7-9.6-8.8C232.9,238.3,239.2,239,236.5,242.1L236.5,242.1z M270.7,249.2
		c2.5,0,5.2,1.9,7.2,0c-1.8-5.1-2.8-11-7.2-13.5C268.6,239.4,270.7,245,270.7,249.2L270.7,249.2z M249.2,238.1
		c-0.6,2.5,2.2,1.5,1.6,4c4.6,1,5.9-4,2.4-4.8C252,239.1,251.3,238.5,249.2,238.1L249.2,238.1z M74.8,252.4
		c5.4,0.6,10.4,1.9,16.7,0.8c0.4-3.8,1.6-8.5,0-11.9C82.4,236.7,77,245.1,74.8,252.4L74.8,252.4z M219,257.2
		c1.2-3.4,2-12.4-2.4-12.7C214.4,248.7,217.7,253.8,219,257.2L219,257.2z M246,247.6c0-1.4-0.6-2-1.6-2.4
		C244.4,246.6,245.1,247.3,246,247.6L246,247.6z M129,264.4c-2.1,0.3,0.7-4.5-2.4-3.2c0.1,4.6-1.4,7.6-0.8,12.7
		c7.8-0.5,7.6-13,7.2-19.1h-2.4C130.8,259.7,131.4,261.3,129,264.4L129,264.4z M136.2,275.5c4.8-0.4,0.2-5.5,1.6-9.6
		c0.7-1.4,2.2-2,1.6-4.8c-0.2-0.6-0.7-0.9-1.6-0.8C135.2,264.7,135.7,269.8,136.2,275.5L136.2,275.5z M112.3,273.9
		c1.9,0.7,2.1,3.2,5.6,2.4c-1.8-3-1.8-7.7-4-10.4C112.8,268,112.9,271.4,112.3,273.9L112.3,273.9z M206.2,269.1
		c1.4-0.2,4,0.8,3.2-1.6h-3.2C206.2,268.1,206.2,268.6,206.2,269.1L206.2,269.1z M143.3,276.3c28.7,1.8,48.4,1.4,68.5,0.8
		c-3.1-5.5-9.8-2.6-15.1-2.4c-16.9,0.7-42,0-55.7-0.8C140.8,275.7,141.6,276.4,143.3,276.3L143.3,276.3z M128.2,284.3
		c0.7-0.9,1.1-2.1,0.8-4c-1.5-1.4-5.3-0.6-8-0.8C122.8,281.7,124.1,284.4,128.2,284.3L128.2,284.3z M135.4,280.3
		c-1.5,1.5,0.5,1.4,0,4c4.3,0.9,5.3-1.6,8.8-1.6c11,3.4,22.8-1.9,38.2,1.6c6.5-4.1,25,4.2,29.5-4
		C184.1,279.6,163.5,279.2,135.4,280.3L135.4,280.3z M216.6,280.3c-0.6,2.4,2.2,1.5,1.6,4c3.4-1.6,9.5-0.6,10.4-4.8
		C224.6,279.9,219.2,278.7,216.6,280.3L216.6,280.3z M82,284.3c-0.1,5.4,4.9,5.7,5.6,10.4c5.5-1,2.1-8.1,0.8-11.1
		C85.4,284.4,83.8,283.5,82,284.3L82,284.3z M211,288.2h1.6v-1.6H211V288.2L211,288.2z M22.3,389.4C44,400.3,72.8,404.2,94,415.6
		c0.5-2.5,2.9-3,4.8-4c2.6,0.1,0.4,9.1,3.2,6.4c-1.2-2.8,3.5-6.6,4-10.4c-4.2-8.8-15-11-23.9-15.1c-5.5,1.4-10.5-2.4-12.7-3.2
		c-3.3-1.1-7.7-0.4-11.1-1.6c-1.2-0.4-2.2-2.1-3.2-2.4c-2.5-0.7-5.6-0.1-8-0.8c-3.4-1-8.8-3.9-11.1-5.6c-3.7-2.7-5.2-7-8-10.4h-2.4
		C26.1,377.3,24.6,383.6,22.3,389.4L22.3,389.4z M97.1,394.1c2.9,4.2,7.4,6.9,11.9,9.6c2.7-6-4.9-7.6-8.8-9.6
		c-4.4-2.2-9.5-5.3-14.3-5.6C87.1,393,92.6,393.1,97.1,394.1L97.1,394.1z"/>
	<path class="st0" d="M233.3,234.9c3,3.1,7.8,4.4,9.6,8.8c-6.9-3.2-5,6.5-8.8,8.8c-0.8,3,3,1.3,2.4,4c-2.9-0.3-3.8-1.2-6.4,0
		c0.3-4.5,3.5-7,0.8-10.4c2.4-0.6,2.3,1.4,4.8,0.8c-0.9-2.6-2.5-4.4-6.4-4c-0.3-3.2,0.3-5.5,3.2-5.6c1.2,1.7,1.4,4.4,4,4.8
		C239.2,239,232.9,238.3,233.3,234.9L233.3,234.9z"/>
	<path class="st0" d="M102.7,195.9c1.4,0.2,4-2.2,4.8,0c0.8,2.9-3.6,0.7-3.2,3.2c2.2,5.6,6.6,13,5.6,19.1c-2.1,1.4-5.3-1.7-6.4-4
		c-5.2-1.7-9.4-4.4-13.5-7.2c0.6-2.1,3.6-1.7,4-4c-3-3.8-4.9,0.9-8,1.6c-4.6-2.6-11.7-4.5-17.5-1.6c-3.4,0.3-2-4.4-5.6-4
		c-3.4,1.1-0.8,5.5,0.8,6.4c0.2,3.4-2.3,4.1-4,5.6c-3.6,8-7.9,15.5-14.3,20.7c-1.6,7.9-8.9,10.2-11.1,17.5c0.3,1,1.4,1.3,1.6,2.4
		c5.6-0.5,6-6.3,10.4-8c2.7-7.4,8.7-13.2,12.7-19.9c3.7-6.1,6.4-12.6,12.7-16.7c7.6-1.2,10.3,1.9,17.5,5.6c5.1,2.6,10.1,5,15.1,8
		c5.2,3,15.6,6.9,15.9,13.5c0.2,4-6.2,8.5-5.6,14.3c4.4,3.9,0.5,10.1,0,15.9c-1.8-3.2-0.3-9.8-0.8-14.3c-2.8,2-3.8,5.7-6.4,8
		c-4.4-1.4-9-2.7-11.9-5.6c-0.7-4.4,2-5.4,1.6-9.6c2.2-1.2,7.1,0.2,7.2-3.2c-2-5.8-9.6-1.8-15.1-3.2c-0.6-2.4-0.2-5.6-2.4-6.4
		c-3.4,1.7-4.3,5.8-7.2,8c-4.4-1.7,3.8-3.2,1.6-8c-4.7,0.1-6.5,7.3-5.6,10.4c-2.7,3.2-3.8,7.9-7.2,10.4c-2.7-0.7-0.4-3.2-3.2-4.8
		c-1.6,4.5-7.1,3.6-11.1,4c0.5,6.4,9.8,5.1,15.1,6.4c9.5,2.3,29.3,1.2,38.2,6.4c0,1.4,0.6,2.1,1.6,2.4c-2.1,10.4,3.7,20,1.6,27.9
		c-1.6,5.9-7.7,8.4-12.7,11.9c-3.3-1-4.2-4.3-5.6-7.2c1.8-0.9,4-1.3,5.6-2.4c0.2-3.7-2.9-4-4-6.4c0.9-2.3,2.3-4.1,1.6-8
		c1.5-1.4,4.9-0.9,4.8-4c-4.2-3.8-9,2.9-14.3,2.4c-4.5-0.4-5.1-4.3-9.6-5.6c-2.1,2.5,0.1,5.8,2.4,6.4c-0.2,6.3-9.7,2.7-14.3,4
		c-1,0.3-4.8,2.7-4.8,3.2c0.5,5.1,10.9,1.2,15.9,1.6c0.7,2.9-1.8,3.9,0,5.6c3.2,0.8,2.4-2.4,5.6-1.6c6.9,3.7,8.2,13,15.1,16.7
		c4.5,8.5,2.9,23,0.8,33.4c-2.6,0.4-3.2,2.2-4.8,4c-0.5,0.6-1.9,0.3-2.4,0.8c-2.1,2.4-2.7,6.2-4.8,8.8c-4.7,5.9-15.8,9.3-14.3,17.5
		c5.8-1.8,8.6-10.4,13.5-10.4c-2.1,7-1.3,13.4-3.2,23.1c-6.8,2.7-13.5-3.1-19.9-4.8c-2.9-0.8-6.1,0-8.8-0.8c-7-2-12.2-7-17.5-9.6
		c0.5-14.4,8.3-27.4,4.8-40.6c-2.5-9.4-1.6-20.7-4.8-31.1c-1-3.3-3.3-8.2-3.2-14.3c0.7-0.6,1.8-0.9,3.2-0.8c0.2-5-0.2-9.3-1.6-12.7
		c3.2-4.1,0.5-11.7,0-16.7c0.2,1.4,2.4-3.9,0-3.2c-4.5,1.4-2,8.3-3.2,15.1c-7.4-10.1-1.4-25.7,4.8-33.4c0.1-6.8,2.2-11.6,4.8-15.9
		c1.6-13,5.1-20.3,6.4-32.6c4.9-3.2,18-1.1,24.7,0c7.4,1.2,19.9,0.1,27.9,2.4C100.3,190.4,102.7,191.9,102.7,195.9L102.7,195.9z
		 M40.6,269.9c4,2.1-1.5,13.7,4.8,13.5c3.5-4.6-0.2-12.8,0.8-21.5c-1.1-0.2-1.3-1.3-2.4-1.6C40.7,263,43.1,266.4,40.6,269.9
		L40.6,269.9z M54.9,351.9c5.7,4.1,27.8,6.4,29.5-4.8C77,348.1,59.4,345.5,54.9,351.9L54.9,351.9z"/>
</g>
</svg>
