<?xml version="1.0" encoding="UTF-8"?><svg id="a" xmlns="http://www.w3.org/2000/svg" viewBox="0 0 766.14 70.55"><defs><style>.b{fill:none;stroke:#000;stroke-miterlimit:10;stroke-width:3px;}</style></defs><path d="M7.98,55.5H0L17.99,5.5h8.72l17.99,50h-7.98L22.56,14.5h-.39L7.98,55.5Zm1.26-20h26v6H9.24v-6Z"/><path d="M51.24,55.5V17.5h7v6h.15c.7-2.02,1.93-3.61,3.69-4.77,1.76-1.16,3.77-1.75,6-1.75,.46,0,1.01,.02,1.65,.05,.64,.03,1.14,.07,1.5,.12v6.98c-.3-.08-.83-.17-1.59-.28-.76-.11-1.52-.16-2.29-.16-1.76,0-3.32,.36-4.69,1.09-1.37,.72-2.45,1.73-3.24,3-.8,1.28-1.19,2.73-1.19,4.36v23.35h-7Z"/><path d="M81.44,11.74c-1.27,0-2.36-.43-3.26-1.28-.9-.85-1.36-1.88-1.36-3.06s.45-2.23,1.36-3.09c.9-.85,1.99-1.28,3.26-1.28s2.36,.43,3.26,1.28c.9,.85,1.35,1.88,1.35,3.06s-.45,2.23-1.35,3.09c-.9,.85-1.99,1.28-3.26,1.28Zm-3.2,43.76V17.5h7V55.5h-7Z"/><path d="M146.24,5.5h7V38.39c0,3.5-.83,6.6-2.48,9.29s-3.98,4.81-6.98,6.35c-3,1.54-6.51,2.31-10.55,2.31s-7.52-.77-10.52-2.31c-3-1.54-5.33-3.65-6.98-6.35-1.66-2.69-2.48-5.79-2.48-9.29V5.5h8V37.78c0,2.26,.51,4.27,1.53,6.03,1.02,1.76,2.46,3.14,4.33,4.14,1.87,1,4.08,1.5,6.65,1.5s4.81-.5,6.68-1.5c1.88-1,3.32-2.38,4.32-4.14,1-1.76,1.5-3.77,1.5-6.03V5.5Z"/><path d="M171.24,5.5V55.5h-7V5.5h7Z"/><path d="M196.76,56.57c-3.76,0-6.99-.85-9.69-2.56-2.7-1.71-4.78-4.07-6.23-7.09-1.45-3.02-2.17-6.47-2.17-10.36s.74-7.43,2.22-10.45,3.57-5.39,6.27-7.09c2.7-1.7,5.87-2.55,9.53-2.55,2.95,0,5.58,.54,7.88,1.63,2.31,1.09,4.17,2.61,5.6,4.56,1.42,1.95,2.27,4.24,2.54,6.85h-7.35c-.4-1.82-1.33-3.39-2.77-4.7s-3.37-1.97-5.77-1.97c-2.11,0-3.95,.55-5.52,1.66-1.58,1.1-2.8,2.67-3.68,4.7-.88,2.03-1.31,4.43-1.31,7.19s.43,5.27,1.29,7.33c.86,2.06,2.08,3.65,3.65,4.78,1.57,1.13,3.43,1.69,5.57,1.69,1.43,0,2.73-.27,3.9-.8,1.17-.53,2.16-1.29,2.96-2.29,.8-.99,1.36-2.19,1.68-3.59h7.35c-.27,2.51-1.09,4.75-2.45,6.72s-3.19,3.52-5.47,4.65c-2.28,1.13-4.96,1.69-8.02,1.69Z"/><path d="M219.24,54.5v-4.67l20-25.41v-.92h-20v-6h30v5.3l-20,25.36v.34h20v6h-30Z"/><path d="M262.55,68.88c-1.09,0-2.08-.09-2.97-.26-.89-.17-1.56-.35-1.99-.55l1.75-5.96c1.33,.36,2.51,.51,3.55,.46,1.04-.05,1.96-.44,2.76-1.17,.8-.73,1.51-1.92,2.13-3.58l.9-2.48-13.67-37.86h7.79l9.46,29h.39l9.46-29h7.81l-15.4,42.36c-.71,1.95-1.62,3.6-2.72,4.95-1.1,1.35-2.42,2.37-3.94,3.05-1.52,.68-3.29,1.02-5.3,1.02Z"/><path d="M297.24,55.5V5.5h7V55.5h-7Zm6-13.31l-.05-8.69h1.28l15.06-16h8.52l-16.98,18h-1.14l-6.69,6.69Zm17.3,13.31l-13.43-17.83,5.03-5.1,17.36,22.93h-8.96Z"/><path d="M353.24,55.5V5.5h31v6h-23v15h21v6h-21v23h-8Z"/><path d="M406.7,55.79c-3.52,0-6.59-.81-9.21-2.42s-4.66-3.87-6.1-6.76c-1.45-2.9-2.17-6.28-2.17-10.16s.72-7.29,2.17-10.21c1.45-2.91,3.48-5.18,6.1-6.79s5.69-2.42,9.21-2.42,6.58,.81,9.21,2.42,4.66,3.88,6.11,6.79c1.45,2.91,2.17,6.32,2.17,10.21s-.72,7.26-2.17,10.16c-1.45,2.9-3.48,5.15-6.11,6.76s-5.69,2.42-9.21,2.42Zm.02-6.13c2.28,0,4.17-.6,5.67-1.81,1.5-1.2,2.61-2.81,3.33-4.81s1.09-4.21,1.09-6.62-.36-4.59-1.09-6.61-1.84-3.63-3.33-4.85-3.39-1.83-5.67-1.83-4.2,.61-5.7,1.83-2.62,2.84-3.35,4.85c-.72,2.01-1.09,4.21-1.09,6.61s.36,4.62,1.09,6.62c.72,2,1.84,3.61,3.35,4.81,1.51,1.21,3.41,1.81,5.7,1.81Z"/><path d="M449.24,17.5v6h-20v-6h20Zm-14-9h7V43.98c0,1.42,.2,2.48,.61,3.19,.41,.71,.93,1.19,1.58,1.44,.65,.25,1.35,.38,2.12,.38,.56,0,1.05-.04,1.48-.12s.75-.15,.98-.2l1.26,6.03c-.41,.16-.98,.33-1.73,.5s-1.69,.26-2.81,.28c-1.84,.03-3.56-.31-5.15-1.03-1.59-.72-2.88-1.82-3.86-3.32-.98-1.5-1.48-3.38-1.48-5.64V8.5Z"/><path d="M473.29,55.79c-3.52,0-6.59-.81-9.21-2.42s-4.66-3.87-6.1-6.76c-1.45-2.9-2.17-6.28-2.17-10.16s.72-7.29,2.17-10.21c1.45-2.91,3.48-5.18,6.1-6.79s5.69-2.42,9.21-2.42,6.58,.81,9.21,2.42,4.66,3.88,6.11,6.79c1.45,2.91,2.17,6.32,2.17,10.21s-.72,7.26-2.17,10.16c-1.45,2.9-3.48,5.15-6.11,6.76s-5.69,2.42-9.21,2.42Zm.02-6.13c2.28,0,4.17-.6,5.67-1.81,1.5-1.2,2.61-2.81,3.33-4.81s1.09-4.21,1.09-6.62-.36-4.59-1.09-6.61-1.84-3.63-3.33-4.85-3.39-1.83-5.67-1.83-4.2,.61-5.7,1.83-2.62,2.84-3.35,4.85c-.72,2.01-1.09,4.21-1.09,6.61s.36,4.62,1.09,6.62c.72,2,1.84,3.61,3.35,4.81,1.51,1.21,3.41,1.81,5.7,1.81Z"/><path d="M514.96,70.55c-2.87,0-5.33-.4-7.39-1.19-2.06-.79-3.74-1.85-5.04-3.15s-2.27-2.74-2.91-4.29l6.04-2.63c.42,.73,.99,1.5,1.7,2.32,.71,.82,1.68,1.52,2.91,2.1,1.23,.58,2.82,.87,4.76,.87,2.66,0,4.86-.68,6.6-2.05,1.74-1.37,2.61-3.54,2.61-6.52v-7.5h-.45c-.42,.81-1.03,1.71-1.82,2.71-.79,.99-1.87,1.85-3.25,2.58-1.38,.73-3.17,1.09-5.38,1.09-2.85,0-5.41-.71-7.69-2.12-2.28-1.41-4.08-3.51-5.4-6.28-1.32-2.77-1.98-6.19-1.98-10.24s.65-7.53,1.96-10.43c1.31-2.9,3.1-5.12,5.39-6.67s4.88-2.32,7.77-2.32c2.24,0,4.05,.39,5.43,1.18,1.38,.79,2.45,1.7,3.23,2.74,.78,1.04,1.37,1.96,1.8,2.76h.4v-6h7V56.3c0,3.28-.72,5.97-2.16,8.07-1.44,2.1-3.39,3.66-5.84,4.67-2.45,1.01-5.21,1.51-8.28,1.51Zm-.4-22.13c2.1,0,3.88-.49,5.34-1.48,1.46-.98,2.56-2.4,3.32-4.25,.76-1.85,1.14-4.07,1.14-6.65s-.38-4.75-1.12-6.67c-.75-1.92-1.85-3.42-3.3-4.51-1.45-1.08-3.24-1.62-5.37-1.62s-4.03,.57-5.5,1.7c-1.46,1.13-2.57,2.67-3.31,4.6-.74,1.94-1.11,4.1-1.11,6.5s.37,4.62,1.12,6.47,1.86,3.31,3.33,4.35c1.47,1.04,3.29,1.56,5.46,1.56Z"/><path d="M541.24,55.5V17.5h7v6h.15c.7-2.02,1.93-3.61,3.69-4.77,1.77-1.16,3.77-1.75,6-1.75,.46,0,1.01,.02,1.65,.05,.64,.03,1.14,.07,1.5,.12v6.98c-.3-.08-.83-.17-1.59-.28-.76-.11-1.52-.16-2.29-.16-1.76,0-3.32,.36-4.69,1.09-1.37,.72-2.45,1.73-3.24,3-.8,1.28-1.19,2.73-1.19,4.36v23.35h-7Z"/><path d="M578.35,55.87c-2.38,0-4.53-.44-6.45-1.33-1.92-.89-3.44-2.18-4.55-3.87s-1.67-3.77-1.67-6.23c0-2.12,.41-3.86,1.22-5.23s1.91-2.45,3.3-3.25c1.38-.8,2.93-1.4,4.64-1.81,1.71-.41,3.45-.72,5.23-.93,2.25-.26,4.07-.48,5.47-.65,1.4-.17,2.42-.45,3.05-.84,.64-.39,.66-1.9,.66-1.9v-.71c0-2.13-.57-3.79-1.72-4.96-1.14-1.17-2.84-1.76-5.1-1.76s-4.2,.54-5.54,1.62c-1.35,1.08-2.27,2.28-2.79,3.6l-6.56-1.56c.78-2.28,1.92-4.12,3.42-5.53,1.5-1.41,3.23-2.43,5.19-3.08,1.96-.64,4.02-.96,6.18-.96,1.43,0,2.95,.18,4.56,.53,1.61,.35,3.12,.99,4.53,1.92,1.41,.93,2.56,2.25,3.46,3.97,.9,1.72,1.35,3.94,1.35,6.68v24.91h-7v-5h.2c-.47,1.35-1.18,2.28-2.12,3.19s-2.16,1.67-3.64,2.27-3.26,.9-5.32,.9Zm1.27-5.86c2.02,0,3.75-.4,5.19-1.2,1.44-.8,2.54-1.84,3.3-3.14,.76-1.29,1.14-2.68,1.14-4.16v-4.83c-.26,.26-.76,.5-1.5,.72-.74,.22-1.58,.41-2.53,.56-.95,.16-1.87,.29-2.76,.42-.9,.12-1.64,.22-2.25,.31-1.42,.18-2.71,.48-3.87,.9-1.17,.42-2.09,1.03-2.78,1.82-.69,.79-1.04,1.84-1.04,3.14,0,1.81,.67,3.17,2,4.09,1.33,.92,3.04,1.38,5.1,1.38Z"/><path d="M624.24,17.5v6h-21v-6h21Zm-15,38V13.64c0-2.34,.49-4.29,1.48-5.85,.98-1.55,2.29-2.72,3.91-3.49,1.62-.77,3.39-1.16,5.29-1.16,1.41,0,2.61,.12,3.61,.35s1.74,.45,2.22,.65l-1.64,5.91c-.33-.1-.75-.22-1.26-.35-.51-.14-1.14-.21-1.87-.21-1.7,0-2.92,.44-3.64,1.32-.73,.88-1.09,2.15-1.09,3.81V55.5h-7Z"/><path d="M632.24,55.5V17.5h7V55.5h-7Zm.55-43l5.58-11h7.52l-7.4,11h-5.7Z"/><path d="M659.99,55.87c-2.38,0-4.53-.44-6.45-1.33-1.92-.89-3.44-2.18-4.55-3.87s-1.67-3.77-1.67-6.23c0-2.12,.41-3.86,1.22-5.23s1.91-2.45,3.3-3.25c1.38-.8,2.93-1.4,4.64-1.81,1.71-.41,3.45-.72,5.23-.93,2.25-.26,4.07-.48,5.47-.65,1.4-.17,2.42-.45,3.05-.84,.64-.39,2.02-1.9,2.02-1.9v-.17s-1.66-3.79-2.86-4.96c-1.2-1.17-2.98-1.76-5.34-1.76s-4.39,.54-5.8,1.62c-1.41,1.08-2.38,2.28-2.92,3.6l-6.86-1.56c.81-2.28,2.01-4.12,3.58-5.53,1.57-1.41,3.38-2.43,5.43-3.08,2.05-.64,4.21-.96,6.47-.96,1.5,0,3.09,.18,4.77,.53,1.69,.35,3.26,.99,4.74,1.92,1.47,.93,2.68,2.25,3.63,3.97,.94,1.72,1.42,3.94,1.15,6.68v24.37h-7v-5h-.16c-.47,1.35-1.18,2.28-2.12,3.19s-2.16,1.67-3.64,2.27-3.26,.9-5.32,.9Zm1.63-5.86c2.02,0,3.75-.4,5.19-1.2,1.44-.8,2.54-1.84,3.3-3.14,.76-1.29,1.14-2.68,1.14-4.16v-4.83c-.26,.26-.76,.5-1.5,.72-.74,.22-1.58,.41-2.53,.56-.95,.16-1.87,.29-2.76,.42-.9,.12-1.64,.22-2.25,.31-1.42,.18-2.71,.48-3.87,.9-1.17,.42-2.09,1.03-2.78,1.82-.69,.79-1.04,1.84-1.04,3.14,0,1.81,.67,3.17,2,4.09,1.33,.92,3.04,1.38,5.1,1.38Z"/><path d="M718.25,48.99h-7.46l11.53-33.4h9.1l11.51,33.4h-7.46l-8.47-26.1h-.26l-8.49,26.1Zm-.67-13.57h17.74v5.22h-17.74v-5.22Z"/><path d="M748.85,15.59h8.05l-11.89,33.4h-9.38l-11.87-33.4h8.05l8.39,25.05h.26l8.4-25.05Zm.04,13.57h-17.74v-5.22h17.74v5.22Z"/><circle class="b" cx="733.84" cy="32.29" r="30.79"/></svg>